<?xml version="1.0" encoding="UTF-8"?>
<svg width="20px" height="15px" viewBox="0 0 20 15" version="1.1" xmlns="http://www.w3.org/2000/svg" xmlns:xlink="http://www.w3.org/1999/xlink">
    <!-- Generator: sketchtool 52.5 (67469) - http://www.bohemiancoding.com/sketch -->
    <title>6A0990D4-8BEC-4FCC-8B9A-E395DE3BA08B</title>
    <desc>Created with sketchtool.</desc>
    <g id="Page-1" stroke="none" stroke-width="1" fill="none" fill-rule="evenodd">
        <g id="Artboard-Copy" transform="translate(-58.000000, -486.000000)" fill="#3A8EDD" fill-rule="nonzero">
            <g id="Group" transform="translate(58.000000, 486.000000)">
                <path d="M15.625,6.25 C15.180625,6.25 14.760625,6.3353125 14.3578125,6.46 L13.615625,5.0928125 L15.4003125,1.25 L15.56875,0.88875 C15.6590625,0.6959375 15.644375,0.46875 15.5296875,0.288125 C15.415,0.11 15.2146875,0 15.0021875,0 L14.601875,0 L11.875,0 C11.5296875,0 11.25,0.280625 11.25,0.625 C11.25,0.9715625 11.5296875,1.25 11.875,1.25 L14.0209375,1.25 L12.85875,3.75 L6.2521875,3.75 C5.98125,3.75 5.743125,3.9234375 5.6590625,4.1796875 L4.9621875,6.30875 C4.768125,6.2840625 4.5753125,6.25 4.375,6.25 C1.9603125,6.25 0,8.208125 0,10.625 C0,13.041875 1.9603125,15 4.375,15 C6.791875,15 8.75,13.041875 8.75,10.625 C8.75,8.8475 7.685625,7.3265625 6.1646875,6.640625 L6.4309375,5.8275 C6.5921875,5.334375 7.0509375,5 7.5709375,5 L12.114375,5 L12.2021875,5.1634375 L12.949375,6.525625 L13.2009375,6.9846875 C12.02625,7.7709375 11.25,9.1065625 11.25,10.625 C11.25,13.041875 13.2103125,15 15.625,15 C18.041875,15 20,13.041875 20,10.625 C20,8.208125 18.041875,6.25 15.625,6.25 Z M7.5,10.625 C7.5,12.34875 6.09875,13.75 4.375,13.75 C2.65125,13.75 1.25,12.34875 1.25,10.625 C1.25,8.90125 2.65125,7.5 4.375,7.5 C4.4409375,7.5 4.499375,7.5146875 4.563125,7.5196875 L3.943125,9.409375 C3.836875,9.7365625 4.0140625,10.088125 4.3409375,10.1978125 C4.4971875,10.2490625 4.670625,10.236875 4.819375,10.16375 C4.9659375,10.088125 5.078125,9.95625 5.131875,9.8 L5.7715625,7.844375 C6.791875,8.359375 7.5,9.406875 7.5,10.625 Z M15.625,13.75 C13.90125,13.75 12.5,12.34875 12.5,10.625 C12.5,9.5825 13.02,8.6621875 13.80875,8.093125 L15.403125,11.0034375 C15.564375,11.2965625 15.928125,11.41125 16.2284375,11.2621875 L16.2309375,11.2596875 C16.3821875,11.1840625 16.4971875,11.0496875 16.5484375,10.8884375 C16.5996875,10.7271875 16.5825,10.5515625 16.5021875,10.4025 L14.9640625,7.5728125 C15.178125,7.526875 15.3978125,7.5 15.625,7.5 C17.34875,7.5 18.75,8.90125 18.75,10.625 C18.75,12.34875 17.34875,13.75 15.625,13.75 Z" id="Shape"></path>
            </g>
        </g>
    </g>
</svg>